<?xml version="1.0" standalone="no"?><!DOCTYPE svg PUBLIC "-//W3C//DTD SVG 1.1//EN" "http://www.w3.org/Graphics/SVG/1.1/DTD/svg11.dtd"><svg t="1721114116765" class="icon" viewBox="0 0 1024 1024" version="1.1" xmlns="http://www.w3.org/2000/svg" p-id="19477" xmlns:xlink="http://www.w3.org/1999/xlink" width="200" height="200"><path d="M243.476952 174.118532c0 32.752587-26.491063 59.24365-59.24365 59.243651-3.130762 0-6.261524-0.240828-9.392286-0.722484-13.727187-2.167451-26.009407-9.151458-34.67921-19.266228-9.151458-10.355597-14.931326-24.082785-14.931326-39.254939 0-32.511759 26.491063-59.002822 59.002822-59.002822 10.11477 0 19.747883 2.649106 28.176858 7.224836s15.894638 11.318909 21.19285 19.507055c6.261524 9.151458 9.873942 20.229539 9.873942 32.270931zM526.449671 174.118532c0 14.931326-5.53904 28.899341-14.931327 39.254939-8.91063 9.873942-20.952023 16.857949-34.679209 19.0254-3.130762 0.481656-6.261524 0.722484-9.392286 0.722484-32.752587 0-59.002822-26.491063-59.002823-59.24365 0-12.041392 3.612418-23.119473 9.873942-32.51176 5.298213-8.188147 12.523048-14.690499 21.19285-19.507055 8.428975-4.575729 18.062088-7.224835 28.176858-7.224835 32.270931 0.481656 58.761994 26.972719 58.761995 59.484477z" fill="" p-id="19478"></path><path d="M266.11477 531.507056h-15.894638v16.857949c-14.931326-7.947319-28.899341-17.580433-41.904045-28.417686-56.594544-46.96143-92.477893-118.005644-92.477893-197.238006 0-39.254939 8.91063-76.342427 24.56444-109.57667 16.857949-35.642521 41.904045-66.950141 72.489182-91.273753 8.428975 4.575729 15.894638 11.318909 21.19285 19.507055 6.261524 9.392286 9.873942 20.470367 9.873942 32.51176 0 32.752587-26.491063 59.24365-59.24365 59.24365-3.130762 0-6.261524-0.240828-9.392286-0.722484-10.596425 28.176858-16.376294 58.521167-16.376294 90.310442 0 63.819379 23.119473 122.099718 61.892757 166.893697 13.004704 15.894638 28.417686 29.862653 45.275635 41.904046zM536.082785 322.950141c0 84.771402-41.181562 159.90969-104.519285 206.630292-1.444967 0.963311-2.649106 1.926623-4.094074 2.889934-11.800564 8.428975-24.56444 15.894638-37.809972 22.156162v-23.119473h-3.612417c15.172154-10.837253 29.140169-23.119473 41.422389-37.087489 1.444967-1.444967 2.649106-3.130762 4.094074-4.575729 38.532455-45.034807 61.651929-103.315146 61.651928-166.893697 0-31.789276-5.779868-62.133584-16.376293-90.310442-3.130762 0.481656-6.261524 0.722484-9.392286 0.722484-32.752587 0-59.002822-26.491063-59.002823-59.002823 0-12.041392 3.612418-23.119473 9.873942-32.511759 5.298213-8.188147 12.523048-14.931326 21.19285-19.507055 8.428975-4.575729 18.062088-7.224835 28.176858-7.224836 32.752587 0 59.002822 26.491063 59.002823 59.24365 0 14.931326-5.53904 28.899341-14.931327 39.254939 15.412982 32.993415 24.323612 70.080903 24.323613 109.335842z" fill="" p-id="19479"></path><path d="M233.843838 141.606773c6.261524 9.392286 9.873942 20.470367 9.873942 32.511759 0 32.752587-26.491063 59.24365-59.24365 59.243651-3.130762 0-6.261524-0.240828-9.392286-0.722484 13.004704-34.438382 32.993415-65.505174 58.761994-91.032926zM536.082785 322.950141c0 84.771402-41.181562 159.90969-104.519285 206.630292-1.444967 0.963311-2.649106 1.926623-4.094074 2.889934-11.800564 8.428975-24.56444 15.894638-37.809972 22.156162v-23.119473h-3.612417c15.172154-10.837253 29.140169-23.119473 41.422389-37.087489 1.444967-1.444967 2.649106-3.130762 4.094074-4.575729 38.532455-45.034807 61.651929-103.315146 61.651928-166.893697 0-31.789276-5.779868-62.133584-16.376293-90.310442-3.130762 0.481656-6.261524 0.722484-9.392286 0.722484-32.752587 0-59.002822-26.491063-59.002823-59.002823 0-12.041392 3.612418-23.119473 9.873942-32.511759 5.298213-8.188147 12.523048-14.931326 21.19285-19.507055 8.428975-4.575729 18.062088-7.224835 28.176858-7.224836 32.752587 0 59.002822 26.491063 59.002823 59.24365 0 14.931326-5.53904 28.899341-14.931327 39.254939 15.412982 32.993415 24.323612 70.080903 24.323613 109.335842z" fill="" p-id="19480"></path><path d="M266.11477 531.507056h-15.894638v16.857949c-14.931326-7.947319-28.899341-17.580433-41.904045-28.417686-56.594544-46.96143-92.477893-118.005644-92.477893-197.238006 0-39.254939 8.91063-76.342427 24.56444-109.57667-9.392286-10.11477-15.172154-23.841957-15.172154-39.014111 0-32.511759 26.491063-59.002822 59.002822-59.002822 10.11477 0 19.747883 2.649106 28.176858 7.224836s15.894638 11.318909 21.19285 19.507055c6.261524 9.392286 9.873942 20.470367 9.873942 32.511759 0 32.752587-26.491063 59.24365-59.24365 59.24365-3.130762 0-6.261524-0.240828-9.392286-0.722483-10.596425 28.176858-16.376294 58.521167-16.376294 90.310442 0 63.819379 23.119473 122.099718 61.892757 166.893697 13.486359 15.412982 28.899341 29.380997 45.757291 41.42239zM476.839135 232.639699c-3.130762 0.481656-6.261524 0.722484-9.392286 0.722484-32.752587 0-59.002822-26.491063-59.002823-59.243651 0-12.041392 3.612418-23.119473 9.873942-32.511759 25.286924 25.527752 45.516463 56.594544 58.521167 91.032926z" fill="" p-id="19481"></path><path d="M266.11477 531.507056h-15.894638v16.857949c-14.931326-7.947319-28.899341-17.580433-41.904045-28.417686-56.594544-46.96143-92.477893-118.005644-92.477893-197.238006 0-39.254939 8.91063-76.342427 24.56444-109.57667-9.392286-10.11477-15.172154-23.841957-15.172154-39.014111 0-32.511759 26.491063-59.002822 59.002822-59.002822 10.11477 0 19.747883 2.649106 28.176858 7.224836s15.894638 11.318909 21.19285 19.507055c6.261524 9.392286 9.873942 20.470367 9.873942 32.511759 0 32.752587-26.491063 59.24365-59.24365 59.24365-3.130762 0-6.261524-0.240828-9.392286-0.722483-10.596425 28.176858-16.376294 58.521167-16.376294 90.310442 0 63.819379 23.119473 122.099718 61.892757 166.893697 13.486359 15.412982 28.899341 29.380997 45.757291 41.42239zM536.082785 322.950141c0 84.771402-41.181562 159.90969-104.519285 206.630292-1.444967 0.963311-2.649106 1.926623-4.094074 2.889934-11.800564 8.428975-24.56444 15.894638-37.809972 22.156162v-23.119473h-3.612417c15.172154-10.837253 29.140169-23.119473 41.422389-37.087489 1.444967-1.444967 2.649106-3.130762 4.094074-4.575729 38.532455-45.034807 61.651929-103.315146 61.651928-166.893697 0-31.789276-5.779868-62.133584-16.376293-90.310442-3.130762 0.481656-6.261524 0.722484-9.392286 0.722484-32.752587 0-59.002822-26.491063-59.002823-59.002823 0-12.041392 3.612418-23.119473 9.873942-32.511759 5.298213-8.188147 12.523048-14.931326 21.19285-19.507055 30.585136 24.323612 55.390405 55.631232 72.248354 91.273753 15.412982 32.993415 24.323612 70.080903 24.323613 109.335842z" fill="" p-id="19482"></path><path d="M208.316087 489.843838v206.87112h53.222953l-11.07808-11.078081v-153.888994h139.198494v154.129822l-11.318908 11.078081h53.222954v-206.87112H208.316087z" fill="" p-id="19483"></path><path d="M327.285042 762.46096l-7.465663 7.465663-19.266228 19.0254-0.481655-0.481656-91.755409-91.755409 26.491063-26.731891 15.412982 15.412982 11.318908 11.318909 5.298213 5.298212 42.144873 42.385701 10.837253 10.596425z" fill="" p-id="19484"></path><path d="M431.322672 696.714958l-92.237065 92.237065-19.266228-19.0254-7.465663-7.465663 7.465663-7.465664 58.280339-58.280338 26.731891-26.731891z" fill="" p-id="19485"></path><path d="M300.553151 744.398871h38.532456v44.793979h-38.532456zM240.827846 670.464722h9.392286v29.621826H240.827846zM389.418627 679.134525h2.16745v22.878645h-2.16745zM283.213547 531.507056h-2.649107c1.444967-3.853246 3.130762-7.465663 4.575729-11.318909-0.722484 3.853246-1.444967 7.706491-1.926622 11.318909z" fill="" p-id="19486"></path><path d="M689.490122 639.879586c0 22.878645-2.408278 44.793979-6.984007 65.746002-24.323612 109.817498-107.890875 190.976482-207.593603 190.976482-72.248354 0-136.067733-42.626529-175.081844-108.131703-15.172154-25.768579-26.731891-54.908749-33.234243-86.457197l42.385701 42.385701h2.649106c0.963311 1.926623 1.926623 3.612418 2.649107 5.539041 1.204139 2.408278 2.408278 4.575729 3.612417 6.984007 1.685795 3.130762 3.612418 6.261524 5.539041 9.392286 4.816557 7.947319 9.873942 15.65381 15.412982 22.878645 34.197554 45.275635 80.4365 72.970837 131.010348 72.970838 77.546566 0 144.496707-65.023518 174.600188-158.705551-40.699906-10.837253-70.803387-47.924741-70.803386-91.996237 0-47.683913 34.920038-87.17968 80.677328-94.163687l8.669802-0.963312c17.098777 36.605833 26.491063 78.750706 26.491063 123.544685z" fill="" p-id="19487"></path><path d="M661.79492 591.473189c0 39.977422-6.020696 77.787394-17.098777 111.984948-40.699906-10.837253-70.803387-47.924741-70.803387-91.996237 0-47.683913 34.920038-87.17968 80.677329-94.163687 4.575729 23.601129 7.224835 48.406397 7.224835 74.174976z" fill="" p-id="19488"></path><path d="M763.905927 611.4619c0 47.924741-35.401693 87.661336-81.399812 94.163688-4.575729 0.722484-8.91063 0.963311-13.727187 0.963311-8.428975 0-16.617121-1.204139-24.323613-3.130762-40.699906-10.837253-70.803387-47.924741-70.803386-91.996237 0-47.683913 34.920038-87.17968 80.677328-94.163687 2.889934-0.481656 5.779868-0.722484 8.669802-0.963312 1.926623 0 3.853246-0.240828 5.779869-0.240828 52.741298 0.240828 95.126999 42.867357 95.126999 95.367827zM797.621825 60.688617H833.264346V963.311383h-35.642521z" fill="" p-id="19489"></path><path d="M389.900282 933.207902H833.264346V963.311383H389.900282zM818.573848 166.652869h89.587958v27.695202h-89.587958zM818.573848 271.412982h89.587958v27.695202h-89.587958zM818.573848 376.413923h89.587958v27.695202h-89.587958zM818.573848 481.174036h89.587958v27.695202h-89.587958zM818.573848 586.174976h89.587958v27.695203h-89.587958zM818.573848 690.935089h89.587958v27.695203h-89.587958zM818.573848 795.93603h89.587958V823.631232h-89.587958z" fill="" p-id="19490"></path></svg>