<?xml version="1.0" standalone="no"?><!DOCTYPE svg PUBLIC "-//W3C//DTD SVG 1.1//EN" "http://www.w3.org/Graphics/SVG/1.1/DTD/svg11.dtd"><svg t="1721113679752" class="icon" viewBox="0 0 1024 1024" version="1.1" xmlns="http://www.w3.org/2000/svg" p-id="8967" xmlns:xlink="http://www.w3.org/1999/xlink" width="200" height="200"><path d="M775.168 636.928c-29.696-5.12-54.272-18.432-76.8-39.936l-18.432-18.432c-12.288-12.288-36.864 11.264-24.576 23.552l18.432 18.432c21.504 21.504 34.816 45.056 39.936 75.776 4.096 23.552 25.6 40.96 50.176 40.96 28.672 0 51.2-22.528 51.2-51.2 2.048-24.576-16.384-45.056-39.936-49.152zM286.72 340.992c10.24-8.192 24.576-7.168 32.768 3.072 1.024 2.048 3.072 4.096 3.072 6.144l71.68 151.552L481.28 251.904c4.096-12.288 17.408-18.432 29.696-14.336 5.12 2.048 10.24 5.12 12.288 10.24L634.88 448.512c38.912-20.48 81.92-31.744 126.976-32.768 14.336-31.744 21.504-62.464 21.504-93.184 0-197.632-242.688-292.864-380.928-155.648C263.168 29.696 20.48 124.928 20.48 322.56c0 30.72 8.192 62.464 22.528 94.208H194.56l92.16-75.776z m284.672 153.6c8.192-8.192 16.384-15.36 24.576-21.504l-88.064-157.696L419.84 569.344c-2.048 6.144-6.144 10.24-12.288 13.312-11.264 5.12-25.6 0-30.72-11.264l-82.944-177.152-75.776 62.464c-4.096 3.072-9.216 5.12-14.336 5.12H67.584c76.8 125.952 232.448 248.832 334.848 297.984 26.624-13.312 57.344-31.744 89.088-53.248-1.024-7.168-1.024-14.336-1.024-20.48 0-71.68 28.672-140.288 80.896-191.488z m208.896 22.528h-30.72v51.2h30.72v-51.2zM592.896 702.464h51.2v-30.72h-51.2v30.72z m156.672 153.6h30.72v-51.2h-30.72v51.2zM1003.52 687.104c0-64.512-26.624-123.904-69.632-165.888-43.008-41.984-102.4-68.608-168.96-68.608-65.536 0-124.928 26.624-168.96 68.608-43.008 43.008-69.632 101.376-69.632 165.888s26.624 123.904 69.632 165.888c43.008 43.008 102.4 68.608 168.96 68.608 65.536 0 124.928-26.624 168.96-68.608 43.008-43.008 69.632-101.376 69.632-165.888z m-102.4 133.12c-34.816 33.792-82.944 55.296-136.192 55.296-53.248 0-101.376-21.504-136.192-55.296-34.816-33.792-56.32-81.92-56.32-134.144s21.504-99.328 56.32-134.144c34.816-33.792 82.944-55.296 136.192-55.296s101.376 21.504 136.192 55.296c34.816 33.792 56.32 81.92 56.32 134.144 0 53.248-21.504 100.352-56.32 134.144z m-16.384-148.48v30.72h51.2v-30.72h-51.2z" p-id="8968"></path></svg>