<?xml version="1.0" standalone="no"?><!DOCTYPE svg PUBLIC "-//W3C//DTD SVG 1.1//EN" "http://www.w3.org/Graphics/SVG/1.1/DTD/svg11.dtd"><svg t="1721113752432" class="icon" viewBox="0 0 1024 1024" version="1.1" xmlns="http://www.w3.org/2000/svg" p-id="10000" xmlns:xlink="http://www.w3.org/1999/xlink" width="200" height="200"><path d="M723.397 495.966c0.447 24.957-124.106 136.89-124.106 265.412 0 76.235 55.563 133.715 124.106 133.715 68.544 0 124.112-63.203 124.112-133.715 0-126.077-123.977-240.113-124.112-265.412zM439.804 63.954h-287.39c-14.158 0-25.668 11.362-25.668 25.32 0 13.956 11.51 25.3 25.658 25.319l13.265-0.001v716.085c0 70.947 58.514 128.668 130.443 128.668 71.912 0 130.427-57.721 130.427-128.668l-0.009-716.1 13.274-0.001c14.156 0 25.667-11.346 25.667-25.302 0-13.957-11.512-25.32-25.667-25.32z m-34.337 281.713H186.74V114.59l218.726-0.013v231.089zM563.358 274.896c-4.438-3.154-9.823-5.836-16.15-8.048-6.332-2.21-13.402-4.229-21.212-6.061-6.233-1.575-10.705-2.777-13.413-3.6-2.71-0.816-5.384-1.95-8.029-3.405-2.642-1.449-4.722-3.189-6.233-5.206-1.515-2.02-2.27-4.416-2.27-7.196 0-4.484 2.221-8.317 6.66-11.504 4.438-3.187 10.283-4.783 17.524-4.783 7.808 0 13.479 1.47 17.003 4.405 3.53 2.935 6.551 7.022 9.067 12.26 1.955 3.658 3.766 6.299 5.435 7.904 1.67 1.614 4.112 2.415 7.323 2.415 3.523 0 6.468-1.338 8.832-4.02 2.359-2.685 3.54-5.695 3.54-9.047 0-3.658-0.946-7.416-2.833-11.266-1.889-3.847-4.882-7.527-8.974-11.032-4.096-3.5-9.244-6.309-15.445-8.426-6.205-2.112-13.555-3.17-22.061-3.17-10.637 0-19.899 1.597-27.772 4.784-7.87 3.186-13.884 7.744-18.044 13.68-4.154 5.934-6.232 12.72-6.232 20.357 0 8.014 1.963 14.722 5.905 20.12 3.932 5.398 9.253 9.654 15.961 12.781 6.71 3.125 15.035 5.859 24.988 8.19 7.427 1.706 13.365 3.312 17.808 4.832 4.438 1.513 8.061 3.71 10.863 6.577 2.802 2.875 4.203 6.616 4.203 11.223 0 5.81-2.598 10.653-7.791 14.532-5.195 3.882-11.954 5.824-20.266 5.824-6.048 0-10.929-0.965-14.645-2.892-3.716-1.92-6.595-4.366-8.64-7.333-2.047-2.969-3.953-6.659-5.714-11.082-1.45-3.723-3.203-6.532-5.244-8.425-2.046-1.898-4.554-2.84-7.513-2.84-3.65 0-6.66 1.211-9.02 3.64-2.363 2.437-3.546 5.356-3.546 8.762 0 5.869 1.97 11.915 5.906 18.135 3.935 6.216 9.057 11.185 15.35 14.91 8.882 5.177 20.156 7.767 33.82 7.767 11.4 0 21.256-1.897 29.57-5.684 8.31-3.785 14.628-9.022 18.94-15.715 4.312-6.693 6.474-14.235 6.474-22.632 0-7.006-1.248-12.923-3.733-17.751-2.484-4.833-5.95-8.82-10.392-11.98z m124.747 37.875c0.061-5.177 0.11-9.879 0.142-14.107 0.029-4.23 0.045-9.375 0.045-15.437 0-9.594-1.334-17.294-4.012-23.104-2.681-5.804-7.26-10.048-13.746-12.73-6.486-2.683-15.4-4.027-26.734-4.027-10.141 0-18.612 1.387-25.415 4.168-6.796 2.776-11.804 6.316-15.015 10.603-3.213 4.296-4.818 8.71-4.818 13.26 0 2.9 1.052 5.287 3.164 7.146 2.107 1.86 4.613 2.794 7.507 2.794 3.213 0 5.303-0.583 6.284-1.75 0.974-1.169 2.643-3.583 5.007-7.246 2.363-3.66 5.194-6.408 8.504-8.235 3.305-1.83 8.232-2.748 14.782-2.748 7.622 0 12.64 1.597 15.066 4.783 2.424 3.188 3.798 8.19 4.109 15.008-5.417 1.575-10.436 2.919-15.065 4.022-4.63 1.108-10.19 2.32-16.675 3.649-6.485 1.321-10.547 2.178-12.182 2.555-7.815 1.7-13.956 5.053-18.425 10.034-4.472 4.99-6.706 11.02-6.706 18.086 0 5.243 1.352 10.103 4.061 14.579 2.709 4.487 6.567 8.036 11.57 10.652 5.008 2.623 10.818 3.933 17.429 3.933 7.247 0 13.78-1.218 19.603-3.647 5.822-2.432 11.853-6.075 18.091-10.94 2.896 4.74 5.639 8.356 8.22 10.846 2.583 2.491 5.195 3.735 7.837 3.735 3.152 0 5.97-1.085 8.46-3.264 2.485-2.177 3.728-4.59 3.728-7.24 0-1.52-0.806-4.908-2.407-10.18-1.604-5.273-2.41-10.337-2.41-15.198z m-25.13-12.402c0 8.963-1.165 15.397-3.496 19.314-2.015 3.54-5.183 6.425-9.495 8.661-4.312 2.244-9.02 3.364-14.12 3.364-4.787 0-8.663-1.371-11.624-4.119-2.961-2.744-4.439-6.073-4.439-9.99 0-3.783 1.259-6.736 3.782-8.853 2.519-2.111 5.162-3.532 7.936-4.262 2.77-0.723 7.759-1.859 14.974-3.407 7.205-1.546 12.701-3.011 16.482-4.404v3.696z m159.931-65.918c-5.753-5.925-12.663-10.488-20.735-13.691-8.072-3.203-17.059-4.806-26.962-4.806-9.753 0-18.663 1.58-26.728 4.746-8.073 3.166-14.94 7.67-20.616 13.51-5.675 5.847-10.024 12.897-13.062 21.147-3.037 8.25-4.554 17.339-4.554 27.269 0 9.845 1.5 18.842 4.493 26.966 2.993 8.13 7.388 15.178 13.184 21.14 5.79 5.97 12.642 10.554 20.556 13.757 7.906 3.199 16.817 4.804 26.722 4.804 9.986 0 18.978-1.585 26.968-4.745 7.99-3.165 14.862-7.706 20.615-13.636 5.752-5.924 10.147-13.012 13.185-21.262 3.032-8.244 4.552-17.257 4.552-27.025 0-9.852-1.498-18.86-4.492-27.028-3.001-8.168-7.374-15.215-13.126-21.146z m-24.03 79.221c-5.872 7.494-13.765 11.235-23.668 11.235-6.553 0-12.248-1.7-17.082-5.107-4.831-3.4-8.55-8.305-11.148-14.711-2.593-6.408-3.89-13.896-3.89-22.462 0-8.651 1.312-16.222 3.95-22.704 2.64-6.49 6.393-11.395 11.269-14.718 4.87-3.318 10.5-4.982 16.893-4.982 9.91 0 17.802 3.72 23.675 11.17 5.872 7.448 8.804 17.86 8.804 31.235 0.001 13.21-2.93 23.562-8.803 31.044z m154.24 13.302c-2.584-2.019-6.333-3.028-11.241-3.028H892.56c1.576-2.403 3.12-4.454 4.63-6.16 3.531-4.291 10.031-10.32 19.51-18.08 9.477-7.768 16.233-13.462 20.266-17.093 4.026-3.632 7.978-8.645 11.854-15.058 3.873-6.401 5.811-13.522 5.811-21.35 0-4.986-0.93-9.802-2.79-14.437-1.855-4.642-4.455-8.728-7.794-12.266a37.162 37.162 0 0 0-11.618-8.332c-6.802-3.027-15.023-4.542-24.653-4.542-8 0-14.98 1.179-20.928 3.549-5.953 2.363-10.863 5.474-14.737 9.325-3.875 3.852-6.786 8.145-8.74 12.88-1.948 4.733-2.927 9.276-2.927 13.631 0 3.599 1.04 6.44 3.118 8.525 2.08 2.084 4.692 3.125 7.844 3.125 3.588 0 6.308-1.133 8.17-3.41 1.855-2.273 3.524-5.524 5.007-9.754 1.477-4.225 2.535-6.813 3.163-7.763 4.724-7.257 11.21-10.888 19.461-10.888 3.902 0 7.509 0.883 10.818 2.65 3.307 1.766 5.917 4.245 7.837 7.432 1.92 3.186 2.885 6.8 2.885 10.838 0 3.731-0.899 7.533-2.693 11.415-1.796 3.879-4.411 7.669-7.842 11.361-3.432 3.692-7.733 7.367-12.893 11.032-2.9 1.958-7.717 6.044-14.454 12.26-6.742 6.22-14.3 13.68-22.673 22.39-2.019 2.152-3.875 5.102-5.577 8.854-1.696 3.759-2.549 6.77-2.549 9.046 0 3.532 1.325 6.61 3.969 9.231 2.644 2.617 6.333 3.929 11.055 3.929h69.53c4.152 0 7.254-1.07 9.302-3.22 2.046-2.146 3.07-4.763 3.07-7.855-0.002-3.47-1.295-6.22-3.876-8.237z" p-id="10001"></path></svg>