<?xml version="1.0" standalone="no"?><!DOCTYPE svg PUBLIC "-//W3C//DTD SVG 1.1//EN" "http://www.w3.org/Graphics/SVG/1.1/DTD/svg11.dtd"><svg t="1721113493958" class="icon" viewBox="0 0 1024 1024" version="1.1" xmlns="http://www.w3.org/2000/svg" p-id="5353" xmlns:xlink="http://www.w3.org/1999/xlink" width="200" height="200"><path d="M512 15.875c274.01603906 0 496.125 222.10896094 496.125 496.125s-222.10896094 496.125-496.125 496.125S15.875 786.01603906 15.875 512 237.98396094 15.875 512 15.875z m242.54310938 256.37259375a88.15521094 88.15521094 0 0 0-122.32582032 25.5504375l-211.53529687 324.18667969-2.01550782 3.53489062c-4.34109375 8.74420312-6.10853906 20.65120312-4.2170625 29.58145313l13.6434375 65.58152343-49.92257812 76.55828907-1.76744531 3.13178906a26.5426875 26.5426875 0 0 0 9.426375 33.61246875 26.41865625 26.41865625 0 0 0 36.62022656-7.65892969l47.93807812-73.55053125 70.35672657-14.75971875 3.90698437-1.08527344c9.24032813-3.10078125 18.91476563-10.23257812 23.96903906-17.98453125l211.53529688-324.2176875 2.88372656-4.74419531a88.77536719 88.77536719 0 0 0-28.5271875-117.73666406z m-89.17846875 41.48845312a52.00010156 52.00010156 0 0 1 69.24044531-11.22482812c24.03105469 15.81398438 30.85277344 48.34117969 15.10080468 72.46525781l-211.50428906 324.24869532-0.86821875 0.83721093a17.1163125 17.1163125 0 0 1-4.03101562 2.51163282l-68.93036719 14.41863281L449.984375 647.72119531l0.03100781-1.20930469a17.73646875 17.73646875 0 0 1 1.05426563-4.74419531L662.60494531 317.58101562z m56.46522656 10.07753907a37.48844531 37.48844531 0 0 0-51.8450625 10.72870312l-6.41861719 9.76746094 16.86825 11.00777344 1.51938281 1.30232812c2.17054687 2.41860937 2.44961719 6.07753125 0.62015625 8.93025a7.441875 7.441875 0 0 1-10.23257812 2.17054688l-16.83724219-11.03878125-51.50397656 77.82960937 16.86825 11.03878125 1.51938281 1.30232813c2.17054687 2.44961719 2.480625 6.07753125 0.62015625 8.93025a7.441875 7.441875 0 0 1-10.23257813 2.17054687l-16.83724218-11.03878125-49.30242188 77.27146875 16.86825 11.03878125 1.488375 1.2403125a7.441875 7.441875 0 0 1 0.65116406 8.99226563 7.41086719 7.41086719 0 0 1-10.20157031 2.13953906l-16.86825-11.00777344-52.18614844 76.6513125 16.86825 11.00777344 1.488375 1.2403125a7.441875 7.441875 0 0 1 0.65116407 8.99226563 7.50389063 7.50389063 0 0 1-10.20157032 2.17054687l-16.86825-11.03878125-4.7131875 7.28683594-1.11628125 2.2325625a16.00003125 16.00003125 0 0 0-0.80620312 8.15505469l8.86823437 42.69775781 0.31007813 0.86821875c0.27907031 0.55814062 0.71317969 1.05426562 1.2403125 1.39535156 0.77519531 0.52713281 1.7364375 0.7441875 2.69767969 0.52713281l42.75977343-8.93025 1.86046875-0.62015625a17.05429687 17.05429687 0 0 0 6.88373438-5.33334375l196.4655-298.23314062 2.04651562-3.53489063a37.61247656 37.61247656 0 0 0-12.99227343-48.31017187zM406.44940625 290.69724219c-30.79075781 0-54.26367188 10.01552344-70.48075781 30.5116875-14.29460156 17.82949219-21.30236719 41.30240625-21.30236719 69.92261719 0 29.14734375 6.72869531 52.40320312 20.49616406 69.67455468 15.65894531 19.96903125 39.69 30.23261719 71.81409375 30.23261719 20.77523438 0 38.60472656-5.9535 53.45746875-17.82949219 15.93801562-12.68219531 25.92253125-30.23261719 30.23261719-52.89932812h-30.75975l-1.79845313 6.01551562c-3.90698437 11.62792969-9.76746094 20.65120312-17.64344531 26.91478125-8.65117969 6.48063281-19.96903125 9.98451563-33.7365 9.98451563-21.0853125 0-36.71325-6.75970312-46.72877344-19.72096875-9.1783125-12.12405469-13.76746875-29.67447656-13.76746875-52.37219531 0-22.13957812 4.58915625-39.37992188 14.04653907-51.81405469 10.23257812-14.04653906 25.39539844-20.77523438 45.6435-20.77523438 13.48839844 0 24.5581875 2.66667188 33.17835937 8.62017188 8.93025 5.92249219 14.88375 15.10080469 18.1085625 27.81400781h30.75975l-1.17829687-6.35660156c-3.7209375-16.52716406-11.72095312-30.0155625-24.18609375-40.09310156-14.57367188-11.87599219-33.4884375-17.82949219-56.15514844-17.82949219z m-147.93827344-28.58920313c-9.73645313 0-17.82949219 3.2248125-24.310125 10.23257813-7.00776562 6.51164063-10.23257812 14.57367188-10.23257812 24.310125 0 9.45738281 3.2248125 17.55042188 10.23257812 24.310125 6.48063281 6.72869531 14.57367188 10.23257812 24.310125 10.23257812 9.426375 0 17.55042188-3.50388281 24.27911719-10.23257812 6.75970312-6.75970312 10.26358594-14.88375 10.26358594-24.310125 0-9.70544531-3.50388281-17.82949219-10.23257813-24.310125a32.248125 32.248125 0 0 0-24.310125-10.23257813z m0 16.18607813c4.83721875 0 9.1783125 1.61240625 12.96126563 5.39535937a17.73646875 17.73646875 0 0 1 5.39535937 12.96126563c0 4.86822656-1.89147656 9.1783125-5.39535937 12.96126562a18.66670313 18.66670313 0 0 1-12.96126563 5.39535938 17.73646875 17.73646875 0 0 1-12.96126562-5.39535938 17.55042188 17.55042188 0 0 1-5.39535938-12.96126562 16.74421875 16.74421875 0 0 1 5.39535938-12.96126563 16.74421875 16.74421875 0 0 1 12.96126562-5.39535937z" p-id="5354"></path></svg>