<?xml version="1.0" standalone="no"?><!DOCTYPE svg PUBLIC "-//W3C//DTD SVG 1.1//EN" "http://www.w3.org/Graphics/SVG/1.1/DTD/svg11.dtd"><svg t="1721115116447" class="icon" viewBox="0 0 1024 1024" version="1.1" xmlns="http://www.w3.org/2000/svg" p-id="22206" width="320" height="320" xmlns:xlink="http://www.w3.org/1999/xlink"><path d="M936.19430083 290.62359925c-23.19812583-54.34989479-58.32671636-103.39736083-103.39736083-142.50277294-67.6059667-59.65232355-152.44482686-93.4553069-245.90013376-98.75773566-25.18653662-0.66280359-45.73344805 18.55850066-47.05905525 43.74503726-0.66280359 24.52373301 17.89569707 44.40784087 41.75662649 46.39625166 72.90839547 3.97682157 138.52595137 30.48896537 190.88743537 76.22241344 68.26877029 60.31512715 106.71137881 147.1423981 106.71137881 245.23733017 0.66280359 100.08334285-37.77980492 199.50388211-108.03698599 279.04031352-70.25718107 80.19923501-163.71248798 131.23511182-262.47022364 143.82838013-15.24448269 1.98841078-31.15176897 2.65121438-46.39625166 3.31401798-79.53643141 0-153.10763045-26.51214381-210.10873963-76.88521703-51.69868042-45.07064446-86.16446736-106.0485752-100.08334286-176.96855988-5.30242877-24.52373301-29.82616178-39.7682157-53.6870912-34.46578695-23.86092942 5.30242877-39.10541211 28.50055458-35.12859055 52.36148402 17.89569707 90.14128893 62.30353794 168.35211315 129.24670105 227.3416331 44.40784087 39.10541211 97.43212848 67.6059667 154.43323765 83.51325298 37.11700133 10.60485751 76.22241343 15.90728628 115.32782554 15.90728628 19.22130427 0 38.44260851-1.3256072 57.66391278-3.97682157 121.2930579-15.24448269 234.63247265-76.88521703 319.47133282-173.65454191s131.23511182-217.39957918 130.57230821-339.35544067c0.66280359-58.32671636-10.60485751-115.99062914-33.80298335-170.34052393z" p-id="22207"></path><path d="M124.25989689 537.84934021c10.60485751-0.66280359 21.20971504-2.65121438 31.15176898-5.30242876 9.27925033-2.65121438 18.55850066-7.29083955 26.51214378-12.5932683 12.5932683-7.95364315 23.86092942-17.23289347 34.46578696-27.837751 15.24448269-14.58167909 29.82616178-31.15176897 43.74503726-47.05905525 19.22130427-23.19812583 37.77980492-46.39625165 57.00110918-69.59437749 17.89569707-21.87251863 36.45419773-42.41943008 55.67550198-62.96634152 19.88410785-21.20971504 40.4310193-43.08223369 60.31512715-64.95475232 14.58167909-15.90728628 28.50055458-32.47737616 40.43101931-50.37307322 7.95364315-11.26766112 14.58167909-23.86092942 19.88410785-37.11700133 3.31401797-9.27925033 5.96523235-19.22130427 6.62803595-29.16335819 0.66280359-7.95364315 0.66280359-15.90728628 0-23.86092942-1.3256072-13.9188755-4.63962516-27.17494739-13.25607191-39.1054121-7.29083955-9.27925033-17.23289347-15.90728628-29.16335817-19.22130426-5.30242877-1.3256072-10.60485751-2.65121438-16.57008988-2.65121438h-10.60485752l-7.29083955 0.6628036c-9.94205392 1.3256072-19.88410785 3.31401797-29.82616178 6.62803594-17.89569707 5.96523235-35.12859054 13.2560719-51.69868041 22.53532224-22.53532223 12.5932683-43.74503728 26.51214381-63.62914514 42.41943008-19.22130427 15.24448269-37.77980492 31.15176897-55.01269838 48.38466244-27.83775099 27.17494739-54.34989479 57.00110917-77.54802062 88.15287815l-1.32560718 1.98841078c-21.87251863 29.16335819-41.0938229 60.97793075-57.66391278 94.1181105-10.60485751 21.20971504-19.22130427 43.74503728-25.8493402 66.9431631-2.65121438 10.60485751-5.30242877 21.87251863-6.62803595 32.47737615 0 2.65121438-0.66280359 5.30242877-0.66280361 8.61644674v13.9188755c0 2.65121438 0.66280359 5.30242877 0.66280361 8.61644674 1.98841078 13.9188755 5.96523235 26.51214381 15.24448268 37.11700132 7.29083955 8.61644674 16.57008987 13.9188755 26.5121438 16.57008988 9.27925033 2.65121438 18.55850066 3.31401797 28.50055459 2.65121438z" p-id="22208"></path></svg>